<svg xmlns="http://www.w3.org/2000/svg" style="display: none">
  <defs>
    <symbol viewBox="0 0 256 512" id="angle-left">
      <path fill="currentColor" d="M20.7 267.3c-6.2-6.2-6.2-16.4 0-22.6l160-160c6.2-6.2 16.4-6.2 22.6 0s6.2 16.4 0 22.6L54.6 256 203.3 404.7c6.2 6.2 6.2 16.4 0 22.6s-16.4 6.2-22.6 0l-160-160z"/>
    </symbol>
    <symbol viewBox="0 0 384 512" id="arrow-down">
      <path fill="currentColor" d="M180.7 507.3c6.2 6.2 16.4 6.2 22.6 0l176-176c6.2-6.2 6.2-16.4 0-22.6s-16.4-6.2-22.6 0L208 457.4 208 16c0-8.8-7.2-16-16-16s-16 7.2-16 16l0 441.4-148.7-148.7c-6.2-6.2-16.4-6.2-22.6 0s-6.2 16.4 0 22.6l176 176z"/>
    </symbol>
    <symbol viewBox="0 0 384 512" id="arrow-up">
      <path fill="currentColor" d="M203.3 12.7c-6.2-6.2-16.4-6.2-22.6 0l-176 176c-6.2 6.2-6.2 16.4 0 22.6s16.4 6.2 22.6 0L176 62.6 176 504c0 8.8 7.2 16 16 16s16-7.2 16-16l0-441.4 148.7 148.7c6.2 6.2 16.4 6.2 22.6 0s6.2-16.4 0-22.6l-176-176z"/>
    </symbol>
    <symbol viewBox="0 0 512 512" id="arrows-rotate">
      <path fill="currentColor" d="M32.5 241.1C36 188.8 57.7 137.6 97.6 97.6 141.3 53.9 198.6 32 256 32 318 32 377.2 57.5 419.8 102.6L458.9 144 352 144c-8.8 0-16 7.2-16 16s7.2 16 16 16l144 0c8.8 0 16-7.2 16-16l0-144c0-8.8-7.2-16-16-16s-16 7.2-16 16l0 103.8-37-39.1C394.4 29.2 326.8 0 256 0 190.5 0 125 25 75 75 29.3 120.6 4.5 179.2 .6 238.9 0 247.8 6.7 255.4 15.5 256s16.4-6.1 17-14.9zm447 29.9c-3.5 52.3-25.2 103.5-65.1 143.4-43.7 43.7-101 65.6-158.4 65.6-62 0-121.2-25.5-163.8-70.6L53.1 368 160 368c8.8 0 16-7.2 16-16s-7.2-16-16-16L16 336c-8.8 0-16 7.2-16 16L0 496c0 8.8 7.2 16 16 16s16-7.2 16-16l0-103.8 37 39.1c48.6 51.5 116.3 80.6 187 80.6 65.5 0 131-25 181-75 45.6-45.6 70.4-104.3 74.4-164 .6-8.8-6.1-16.4-14.9-17s-16.4 6.1-17 14.9z"/>
    </symbol>
    <symbol viewBox="0 0 512 512" id="backward-fast">
      <path fill="currentColor" d="M16 480c-8.8 0-16-7.2-16-16L0 48c0-8.8 7.2-16 16-16s16 7.2 16 16L32 213.9 235.2 39.7c9.5-8.1 22.8-10 34.2-4.8S288 51.5 288 64l0 122.4 171.2-146.7c9.5-8.1 22.8-10 34.2-4.8S512 51.5 512 64l0 384c0 12.5-7.3 23.8-18.6 29.1s-24.7 3.4-34.2-4.8L288 325.6 288 448c0 12.5-7.3 23.8-18.6 29.1s-24.7 3.4-34.2-4.8L32 298.1 32 464c0 8.8-7.2 16-16 16zM288 283.4l192 164.6 0-384-192 164.6 0 54.9zM256 448L256 64 32 256 256 448z"/>
    </symbol>
    <symbol viewBox="0 0 384 512" id="backward-step">
      <path fill="currentColor" d="M16 32c8.8 0 16 7.2 16 16l0 181.2 10-6.6 280-184c12.3-8.1 28-8.8 41-1.8S384 57.3 384 72l0 368c0 14.7-8.1 28.2-21 35.2s-28.7 6.3-41-1.8l-280-184-10-6.6 0 181.2c0 8.8-7.2 16-16 16S0 472.8 0 464L0 48c0-8.8 7.2-16 16-16zM339.6 65.3l-280 184-10.2 6.7 10.2 6.7 280 184c2.5 1.6 5.6 1.8 8.2 .4s4.2-4.1 4.2-7l0-368c0-2.9-1.6-5.6-4.2-7s-5.7-1.3-8.2 .4z"/>
    </symbol>
    <symbol viewBox="0 0 448 512" id="bars">
      <path fill="currentColor" d="M0 80c0-8.8 7.2-16 16-16l416 0c8.8 0 16 7.2 16 16s-7.2 16-16 16L16 96C7.2 96 0 88.8 0 80zM0 256c0-8.8 7.2-16 16-16l416 0c8.8 0 16 7.2 16 16s-7.2 16-16 16L16 272c-8.8 0-16-7.2-16-16zM448 432c0 8.8-7.2 16-16 16L16 448c-8.8 0-16-7.2-16-16s7.2-16 16-16l416 0c8.8 0 16 7.2 16 16z"/>
    </symbol>
    <symbol viewBox="0 0 384 512" id="caret-down">
      <path fill="currentColor" d="M192 352L32 192 352 192 192 352zM381.6 179.8c-5-12-16.6-19.8-29.6-19.8L32 160c-12.9 0-24.6 7.8-29.6 19.8S.2 205.5 9.4 214.6l160 160c12.5 12.5 32.8 12.5 45.3 0l160-160c9.2-9.2 11.9-22.9 6.9-34.9z"/>
    </symbol>
    <symbol viewBox="0 0 256 512" id="caret-right">
      <path fill="currentColor" d="M224.5 256l-160 160 0-320 160 160zM52.3 66.4c-12 5-19.8 16.6-19.8 29.6l0 320c0 12.9 7.8 24.6 19.8 29.6s25.7 2.2 34.9-6.9l160-160c12.5-12.5 12.5-32.8 0-45.3l-160-160C78 64.2 64.2 61.5 52.3 66.4z"/>
    </symbol>
    <symbol viewBox="0 0 640 512" id="cart-shopping">
      <path fill="currentColor" d="M16 0C7.2 0 0 7.2 0 16S7.2 32 16 32l45.3 0C69 32 75.7 37.5 77 45.1l50.9 279.7c6.2 34.2 36 59.1 70.8 59.1L464 384c8.8 0 16-7.2 16-16s-7.2-16-16-16l-265.3 0c-19.3 0-35.9-13.8-39.4-32.8l-5.7-31.2 313 0c33.9 0 63.3-23.7 70.4-56.9L569.4 80.4C574.8 55.5 555.8 32 530.3 32L106.6 32C99.9 13.1 81.9 0 61.3 0L16 0zm97 64l417.3 0c5.1 0 8.9 4.7 7.8 9.7L505.8 224.4c-4 18.4-20.2 31.6-39.1 31.6L147.9 256 113 64zm75 396a20 20 0 1 1 40 0 20 20 0 1 1 -40 0zm72 0a52 52 0 1 0 -104 0 52 52 0 1 0 104 0zm172-20a20 20 0 1 1 0 40 20 20 0 1 1 0-40zm0 72a52 52 0 1 0 0-104 52 52 0 1 0 0 104z"/>
    </symbol>
    <symbol viewBox="0 0 576 512" id="certificate">
      <path fill="currentColor" d="M226.3 24.5L212.5 78.9c-4.4 17.5-22.4 27.8-39.7 22.9l-53.9-15.2 15.2 53.9c4.9 17.3-5.5 35.3-22.9 39.7L56.8 194 97 233.1c12.9 12.6 12.9 33.3 0 45.9L56.8 318 111.1 331.8c17.5 4.4 27.8 22.4 22.9 39.7l-15.2 53.9 53.9-15.2c17.3-4.9 35.3 5.5 39.7 22.9l13.8 54.3 50.6-51.9c3-3.1 7.1-4.8 11.5-4.8s8.5 1.7 11.5 4.8l50.6 51.9 13.8-54.3c4.4-17.5 22.4-27.8 39.7-22.9l53.9 15.2-15.2-53.9c-4.9-17.3 5.5-35.3 22.9-39.7l54.3-13.8-40.2-39.1c-12.9-12.6-12.9-33.3 0-45.9l40.2-39.1-54.3-13.8c-17.5-4.4-27.8-22.4-22.9-39.7l15.2-53.9-53.9 15.2c-17.3 4.9-35.3-5.5-39.7-22.9l-13.8-54.3-39.1 40.2c-12.6 12.9-33.3 12.9-45.9 0L226.3 24.5zM105.1 82.7l0 0 0 0s0 0 0 0zM239.2-8l0 0 49.1 50.4 49.1-50.4c13-13.4 35.9-7.2 40.5 10.8L395.1 71 462.8 51.9c8.4-2.4 17.4 0 23.5 6.1s8.5 15.1 6.1 23.5l0 0-19.1 67.7 68.2 17.3c8.4 2.1 15 8.7 17.3 17.1s-.2 17.3-6.4 23.4l-50.4 49.1 50.4 49.1c6.2 6.1 8.7 15 6.4 23.4s-8.9 14.9-17.3 17.1l-68.2 17.3 19.1 67.7c2.4 8.4 0 17.4-6.1 23.5s-15.1 8.5-23.5 6.1l0 0-67.7-19.1-17.3 68.2c-2.1 8.4-8.7 15-17 17.3s-17.4-.2-23.4-6.4l-49.1-50.4-49.1 50.4c-11.5-11.2-11.5-11.2 0 0-6.1 6.2-15 8.7-23.4 6.4s-14.9-8.9-17.1-17.3l-17.3-68.2-67.7 19.1c-8.4 2.4-17.4 0-23.5-6.1s-8.5-15.1-6.1-23.5l19.1-67.7-68.2-17.3 3.9-15.5 0-.1zM39 330l-3.9 15.5c-8.4-2.1-15-8.7-17.3-17.1s.2-17.3 6.4-23.4L74.7 256 24.3 206.9c-6.2-6.1-8.7-15-6.4-23.4s8.9-14.9 17.3-17.1l68.2-17.3-19.1-67.7c-2.4-8.4 0-17.4 6.1-23.5s15.1-8.5 23.5-6.1L181.5 71 198.8 2.8c4.6-18.1 27.5-24.2 40.5-10.8z"/>
    </symbol>
    <symbol viewBox="0 0 448 512" id="check">
      <path fill="currentColor" d="M441.4 67.1c7.1 5.2 8.7 15.2 3.5 22.4l-280 384c-2.8 3.8-7 6.2-11.7 6.5s-9.2-1.3-12.6-4.6l-136-136c-6.2-6.2-6.2-16.4 0-22.6s16.4-6.2 22.6 0l122.8 122.8 269-368.9c5.2-7.1 15.2-8.7 22.4-3.5z"/>
    </symbol>
    <symbol viewBox="0 0 320 512" id="chevron-right">
      <path fill="currentColor" d="M315.3 244.7c6.2 6.2 6.2 16.4 0 22.6l-208 208c-6.2 6.2-16.4 6.2-22.6 0s-6.2-16.4 0-22.6L281.4 256 84.7 59.3c-6.2-6.2-6.2-16.4 0-22.6s16.4-6.2 22.6 0l208 208z"/>
    </symbol>
    <symbol viewBox="0 0 512 512" id="circle-check">
      <path fill="currentColor" d="M256 32a224 224 0 1 1 0 448 224 224 0 1 1 0-448zm0 480a256 256 0 1 0 0-512 256 256 0 1 0 0 512zm77.6-311.5c4.7-7.5 2.4-17.4-5.1-22s-17.4-2.4-22 5.1l-67.6 108.2-34-45.3c-5.3-7.1-15.3-8.5-22.4-3.2s-8.5 15.3-3.2 22.4l48 64c3.2 4.2 8.2 6.6 13.5 6.4s10.1-3 12.9-7.5l80-128z"/>
    </symbol>
    <symbol viewBox="0 0 512 512" id="circle-info">
      <path fill="currentColor" d="M256 32a224 224 0 1 1 0 448 224 224 0 1 1 0-448zm0 480a256 256 0 1 0 0-512 256 256 0 1 0 0 512zM208 352c-8.8 0-16 7.2-16 16s7.2 16 16 16l96 0c8.8 0 16-7.2 16-16s-7.2-16-16-16l-32 0 0-112c0-8.8-7.2-16-16-16l-48 0c-8.8 0-16 7.2-16 16s7.2 16 16 16l32 0 0 96-32 0zm48-168a24 24 0 1 0 0-48 24 24 0 1 0 0 48z"/>
    </symbol>
    <symbol viewBox="0 0 512 512" id="circle-play">
      <path fill="currentColor" d="M256 32a224 224 0 1 1 0 448 224 224 0 1 1 0-448zm0 480a256 256 0 1 0 0-512 256 256 0 1 0 0 512zm72.7-256L208 329.7 208 182.3 328.7 256zM188.3 147.1c-7.6 4.2-12.3 12.3-12.3 20.9l0 176c0 8.7 4.7 16.7 12.3 20.9s16.8 4.1 24.3-.5l144-88c7.1-4.4 11.5-12.1 11.5-20.5s-4.4-16.1-11.5-20.5l-144-88c-7.4-4.5-16.7-4.7-24.3-.5z"/>
    </symbol>
    <symbol viewBox="0 0 512 512" id="circle-question">
      <path fill="currentColor" d="M480 256a224 224 0 1 0 -448 0 224 224 0 1 0 448 0zM0 256a256 256 0 1 1 512 0 256 256 0 1 1 -512 0zm256-96c-26.5 0-48 21.5-48 48 0 8.8-7.2 16-16 16s-16-7.2-16-16c0-44.2 35.8-80 80-80s80 35.8 80 80c0 39.6-25.7 60.3-46.2 70.1-11.5 5.5-17.8 14.5-17.8 22.2l0 5.7c0 8.8-7.2 16-16 16s-16-7.2-16-16l0-5.7c0-24.6 18.3-42.6 36-51 14.5-6.9 28-18.8 28-41.2 0-26.5-21.5-48-48-48zM232 376a24 24 0 1 1 48 0 24 24 0 1 1 -48 0z"/>
    </symbol>
    <symbol viewBox="0 0 448 512" id="ellipsis">
      <path fill="currentColor" d="M448 256a32 32 0 1 1 -64 0 32 32 0 1 1 64 0zm-192 0a32 32 0 1 1 -64 0 32 32 0 1 1 64 0zM32 288a32 32 0 1 1 0-64 32 32 0 1 1 0 64z"/>
    </symbol>
    <symbol viewBox="0 0 64 512" id="ellipsis-vertical">
      <path fill="currentColor" d="M32 416c17.7 0 32 14.3 32 32s-14.3 32-32 32-32-14.3-32-32 14.3-32 32-32zm0-192c17.7 0 32 14.3 32 32s-14.3 32-32 32-32-14.3-32-32 14.3-32 32-32zM0 64A32 32 0 1 1 64 64 32 32 0 1 1 0 64z"/>
    </symbol>
    <symbol viewBox="0 0 576 512" id="eye">
      <path fill="currentColor" d="M288 64c-140.8 0-229.3 128-256 192 26.7 64 115.2 192 256 192 140.8 0 229.3-128 256-192-26.7-64-115.2-192-256-192zM95.4 112.6C142.5 68.8 207.2 32 288 32s145.5 36.8 192.6 80.6c46.8 43.5 78.1 95.4 93 131.1 3.3 7.9 3.3 16.7 0 24.6-14.9 35.7-46.2 87.7-93 131.1-47.1 43.7-111.8 80.6-192.6 80.6S142.5 443.2 95.4 399.4c-46.8-43.5-78.1-95.4-93-131.1-3.3-7.9-3.3-16.7 0-24.6 14.9-35.7 46.2-87.7 93-131.1zM288 352c53 0 96-43 96-96 0-43.3-28.7-79.9-68.1-91.9 2.7 8.8 4.1 18.2 4.1 27.9 0 53-43 96-96 96-9.7 0-19.1-1.4-27.9-4.1 11.9 39.4 48.6 68.1 91.9 68.1zM160.2 263.8c-.2-2.6-.2-5.2-.2-7.8 0-12.2 1.7-23.9 4.9-35 .3-.9 .5-1.8 .8-2.7 12.4-40.4 44.3-72.2 84.7-84.7 11.9-3.7 24.6-5.6 37.7-5.6 2.5 0 5 .1 7.4 .2l.4 0c67.1 4 120.2 59.7 120.2 127.8 0 70.7-57.3 128-128 128-68.1 0-123.8-53.2-127.8-120.2zm32.1-16.1c9.3 5.3 20.1 8.4 31.6 8.4 35.3 0 64-28.7 64-64 0-11.5-3-22.3-8.4-31.6-46.4 4-83.3 40.9-87.3 87.3z"/>
    </symbol>
    <symbol viewBox="0 0 512 512" id="forward-fast">
      <path fill="currentColor" d="M496 480c8.8 0 16-7.2 16-16l0-416c0-8.8-7.2-16-16-16s-16 7.2-16 16l0 165.9-203.2-174.1c-9.5-8.1-22.8-10-34.2-4.8S224 51.5 224 64L224 186.4 52.8 39.7c-9.5-8.1-22.8-10-34.2-4.8S0 51.5 0 64L0 448c0 12.5 7.3 23.8 18.6 29.1s24.7 3.4 34.2-4.8L224 325.6 224 448c0 12.5 7.3 23.8 18.6 29.1s24.7 3.4 34.2-4.8L480 298.1 480 464c0 8.8 7.2 16 16 16zM224 283.4L32 448 32 64 224 228.6 224 283.4zM256 448l0-384 224 192-224 192z"/>
    </symbol>
    <symbol viewBox="0 0 384 512" id="forward-step">
      <path fill="currentColor" d="M368 32c-8.8 0-16 7.2-16 16l0 181.2-10-6.6-280-184c-12.3-8.1-28-8.8-41-1.8S0 57.3 0 72L0 440c0 14.7 8.1 28.2 21 35.2s28.7 6.3 41-1.8l280-184 10-6.6 0 181.2c0 8.8 7.2 16 16 16s16-7.2 16-16l0-416c0-8.8-7.2-16-16-16zM44.4 65.3l280 184 10.2 6.7-10.2 6.7-280 184c-2.5 1.6-5.6 1.8-8.2 .4s-4.2-4.1-4.2-7L32 72c0-2.9 1.6-5.6 4.2-7s5.7-1.3 8.2 .4z"/>
    </symbol>
    <symbol viewBox="0 0 576 512" id="gears">
      <path fill="currentColor" d="M181 1.1c-3.6-1-7.4 .7-9.2 4L157.4 32.8c-2.3 4.5-6.6 7.6-11.6 8.4-5.7 .9-11.3 2.4-16.6 4.5-4.7 1.8-10 1.2-14.2-1.5L88.7 27.4c-3.2-2-7.3-1.6-10 1.1l-18 18c-2.7 2.7-3.1 6.8-1.1 10L76.4 82.8c2.7 4.2 3.2 9.5 1.5 14.2-1 2.7-1.9 5.4-2.6 8.2s-1.4 5.6-1.8 8.4c-.8 5-3.9 9.2-8.4 11.6L37.3 139.7c-3.3 1.7-5 5.5-4 9.2l6.6 24.6c1 3.6 4.3 6.1 8.1 5.9L79.1 178c5-.2 9.9 1.9 13.1 5.8 3.6 4.4 7.7 8.5 12.2 12.2 3.9 3.2 6 8 5.8 13.1l-1.3 31.2c-.2 3.7 2.3 7.1 5.9 8.1l24.6 6.6c3.6 1 7.4-.7 9.2-4L163 223.2c2.3-4.5 6.6-7.6 11.6-8.4 5.7-.9 11.3-2.4 16.6-4.5 4.7-1.8 10-1.2 14.2 1.5l26.3 16.8c3.2 2 7.3 1.6 10-1.1l18-18c2.7-2.7 3.1-6.8 1.1-10l-16.8-26.3c-2.7-4.2-3.2-9.5-1.5-14.2 1-2.7 1.9-5.4 2.6-8.2s1.4-5.6 1.8-8.4c.8-5 3.9-9.2 8.4-11.6l27.7-14.4c3.3-1.7 5-5.5 4-9.2l-6.6-24.6c-1-3.6-4.3-6.1-8.1-5.9L241.3 78c-5 .2-9.9-1.9-13.1-5.8-3.6-4.4-7.7-8.5-12.2-12.2-3.9-3.2-6-8-5.8-13.1l1.3-31.2c.2-3.7-2.3-7.1-5.9-8.1L181 1.1zM143.5-9.7c8.7-16.6 27.7-25 45.8-20.1l24.6 6.6c18.1 4.9 30.4 21.6 29.6 40.4l-1 23.5c1.7 1.6 3.4 3.3 5 5l23.6-1c18.7-.8 35.5 11.5 40.4 29.6l6.6 24.6c4.9 18.1-3.5 37.2-20.1 45.8L277 155.6c-.5 2.3-1.2 4.6-1.8 6.8l12.7 19.9c10.1 15.8 7.8 36.5-5.5 49.8l-18 18c-13.3 13.3-33.9 15.5-49.8 5.5L194.7 243c-2.3 .7-4.5 1.3-6.9 1.8l-10.9 20.9c-8.7 16.6-27.7 25-45.8 20.2l-24.6-6.6c-18.1-4.9-30.4-21.6-29.6-40.4l1-23.5c-1.7-1.6-3.4-3.3-5-5l-23.6 1c-18.7 .8-35.5-11.5-40.4-29.6L2.4 157.1c-4.9-18.1 3.5-37.2 20.1-45.8l20.9-10.9c.5-2.3 1.2-4.6 1.8-6.8L32.6 73.6c-10.1-15.8-7.8-36.5 5.5-49.8l18-18C69.3-7.4 90-9.7 105.9 .4L125.7 13c2.3-.7 4.5-1.3 6.9-1.8L143.5-9.7zm2.2 191.8a56 56 0 1 1 29-108.2 56 56 0 1 1 -29 108.2zm37.7-47.9a24 24 0 1 0 -46.4-12.4 24 24 0 1 0 46.4 12.4zM370.8 263.7c-3.6 1-6.1 4.3-5.9 8.1l1.3 31.2c.2 5-1.9 9.9-5.8 13.1-4.5 3.7-8.5 7.8-12.2 12.2-3.2 3.9-8 6.1-13.1 5.8l-31.2-1.3c-3.7-.2-7.1 2.3-8.1 5.9l-6.6 24.6c-1 3.6 .7 7.4 4 9.2L321 386.8c4.5 2.3 7.6 6.6 8.4 11.6 .5 2.8 1.1 5.6 1.8 8.4s1.6 5.6 2.6 8.2c1.8 4.7 1.2 10-1.5 14.2l-16.8 26.3c-2 3.2-1.6 7.3 1.1 10l18 18c2.7 2.7 6.8 3.1 10 1.1L371 467.9c4.2-2.7 9.5-3.2 14.2-1.5 5.4 2 10.9 3.5 16.6 4.5 5 .8 9.2 3.9 11.6 8.4l14.4 27.7c1.7 3.3 5.5 5 9.2 4l24.6-6.6c3.6-1 6.1-4.3 5.9-8.1l-1.3-31.2c-.2-5 1.9-9.9 5.8-13 4.5-3.7 8.5-7.8 12.2-12.2 3.2-3.9 8-6.1 13.1-5.8l31.2 1.3c3.7 .2 7.1-2.3 8.1-5.9l6.6-24.6c1-3.6-.7-7.4-4-9.2l-27.7-14.4c-4.5-2.3-7.6-6.6-8.4-11.6-.5-2.8-1.1-5.6-1.8-8.4s-1.6-5.6-2.6-8.2c-1.8-4.7-1.2-10 1.5-14.2l16.8-26.3c2-3.2 1.6-7.3-1.1-10l-18-18c-2.7-2.7-6.8-3.1-10-1.1l-26.3 16.8c-4.2 2.7-9.5 3.3-14.2 1.5-5.4-2-10.9-3.5-16.6-4.5-5-.8-9.2-3.9-11.6-8.4l-14.4-27.7c-1.7-3.3-5.5-5-9.2-4l-24.6 6.6zm-37.9 9.5c-.8-18.7 11.5-35.5 29.6-40.4l24.6-6.6c18.1-4.9 37.2 3.5 45.8 20.1l10.9 20.9c2.3 .5 4.6 1.2 6.9 1.8l19.9-12.7c15.8-10.1 36.5-7.8 49.8 5.5l18 18c13.3 13.3 15.5 33.9 5.5 49.8l-12.7 19.9c.7 2.2 1.3 4.5 1.8 6.8l20.9 10.9c16.6 8.7 25 27.7 20.2 45.8l-6.6 24.6c-4.9 18.1-21.6 30.4-40.4 29.6l-23.6-1c-1.6 1.7-3.3 3.4-5 5l1 23.5c.8 18.7-11.5 35.5-29.6 40.4l-24.6 6.6c-18.1 4.9-37.2-3.5-45.8-20.2l-10.9-20.9c-2.3-.5-4.6-1.2-6.9-1.8l-19.9 12.7c-15.8 10.1-36.5 7.8-49.8-5.5l-18-18c-13.3-13.3-15.5-33.9-5.5-49.8l12.7-19.9c-.7-2.2-1.3-4.5-1.8-6.8l-20.9-10.9c-16.6-8.7-25-27.7-20.1-45.8l6.6-24.6c4.9-18.1 21.6-30.4 40.4-29.6l23.6 1c1.6-1.7 3.3-3.4 5-5l-1-23.5zm97.8 165a56 56 0 1 1 -29-108.2 56 56 0 1 1 29 108.2zm8.7-60.3a24 24 0 1 0 -46.4 12.4 24 24 0 1 0 46.4-12.4z"/>
    </symbol>
    <symbol viewBox="0 0 512 512" id="globe">
      <path fill="currentColor" d="M317.5 420.1C295.4 465 271.5 480 256 480s-39.4-15-61.5-59.9c-19-38.6-32.1-91.3-34.2-148.1l191.4 0c-2.1 56.8-15.2 109.5-34.2 148.1zM351.7 240l-191.4 0c2.1-56.8 15.2-109.5 34.2-148.1 22.1-44.9 46-59.9 61.5-59.9s39.4 15 61.5 59.9c19 38.6 32.1 91.3 34.2 148.1zm32 32l95.7 0c-6.5 92.5-69.2 169.5-154.2 197.1 33-44.2 55.8-117.8 58.5-197.1zm95.7-32l-95.7 0c-2.7-79.3-25.5-152.9-58.5-197.1 85 27.6 147.7 104.6 154.2 197.1zm-351.2 0l-95.7 0c6.5-92.5 69.2-169.5 154.2-197.1-33 44.2-55.8 117.8-58.5 197.1zM32.6 272l95.7 0c2.7 79.3 25.5 152.9 58.5 197.1-85-27.6-147.7-104.6-154.2-197.1zM256 512a256 256 0 1 0 0-512 256 256 0 1 0 0 512z"/>
    </symbol>
    <symbol viewBox="0 0 448 512" id="grid-2">
      <path fill="currentColor" d="M48 64c-8.8 0-16 7.2-16 16l0 96c0 8.8 7.2 16 16 16l96 0c8.8 0 16-7.2 16-16l0-96c0-8.8-7.2-16-16-16L48 64zM0 80C0 53.5 21.5 32 48 32l96 0c26.5 0 48 21.5 48 48l0 96c0 26.5-21.5 48-48 48l-96 0c-26.5 0-48-21.5-48-48L0 80zM48 320c-8.8 0-16 7.2-16 16l0 96c0 8.8 7.2 16 16 16l96 0c8.8 0 16-7.2 16-16l0-96c0-8.8-7.2-16-16-16l-96 0zM0 336c0-26.5 21.5-48 48-48l96 0c26.5 0 48 21.5 48 48l0 96c0 26.5-21.5 48-48 48l-96 0c-26.5 0-48-21.5-48-48l0-96zM400 64l-96 0c-8.8 0-16 7.2-16 16l0 96c0 8.8 7.2 16 16 16l96 0c8.8 0 16-7.2 16-16l0-96c0-8.8-7.2-16-16-16zM304 32l96 0c26.5 0 48 21.5 48 48l0 96c0 26.5-21.5 48-48 48l-96 0c-26.5 0-48-21.5-48-48l0-96c0-26.5 21.5-48 48-48zm0 288c-8.8 0-16 7.2-16 16l0 96c0 8.8 7.2 16 16 16l96 0c8.8 0 16-7.2 16-16l0-96c0-8.8-7.2-16-16-16l-96 0zm-48 16c0-26.5 21.5-48 48-48l96 0c26.5 0 48 21.5 48 48l0 96c0 26.5-21.5 48-48 48l-96 0c-26.5 0-48-21.5-48-48l0-96z"/>
    </symbol>
    <symbol viewBox="0 0 512 512" id="grip">
      <path fill="currentColor" d="M96 184c0 4.4-3.6 8-8 8l-48 0c-4.4 0-8-3.6-8-8l0-48c0-4.4 3.6-8 8-8l48 0c4.4 0 8 3.6 8 8l0 48zm32-48c0-22.1-17.9-40-40-40L40 96C17.9 96 0 113.9 0 136l0 48c0 22.1 17.9 40 40 40l48 0c22.1 0 40-17.9 40-40l0-48zm160 0l0 48c0 4.4-3.6 8-8 8l-48 0c-4.4 0-8-3.6-8-8l0-48c0-4.4 3.6-8 8-8l48 0c4.4 0 8 3.6 8 8zm-8-40l-48 0c-22.1 0-40 17.9-40 40l0 48c0 22.1 17.9 40 40 40l48 0c22.1 0 40-17.9 40-40l0-48c0-22.1-17.9-40-40-40zm200 40l0 48c0 4.4-3.6 8-8 8l-48 0c-4.4 0-8-3.6-8-8l0-48c0-4.4 3.6-8 8-8l48 0c4.4 0 8 3.6 8 8zm-8-40l-48 0c-22.1 0-40 17.9-40 40l0 48c0 22.1 17.9 40 40 40l48 0c22.1 0 40-17.9 40-40l0-48c0-22.1-17.9-40-40-40zm8 232l0 48c0 4.4-3.6 8-8 8l-48 0c-4.4 0-8-3.6-8-8l0-48c0-4.4 3.6-8 8-8l48 0c4.4 0 8 3.6 8 8zm-8-40l-48 0c-22.1 0-40 17.9-40 40l0 48c0 22.1 17.9 40 40 40l48 0c22.1 0 40-17.9 40-40l0-48c0-22.1-17.9-40-40-40zM288 376c0 4.4-3.6 8-8 8l-48 0c-4.4 0-8-3.6-8-8l0-48c0-4.4 3.6-8 8-8l48 0c4.4 0 8 3.6 8 8l0 48zm32-48c0-22.1-17.9-40-40-40l-48 0c-22.1 0-40 17.9-40 40l0 48c0 22.1 17.9 40 40 40l48 0c22.1 0 40-17.9 40-40l0-48zM96 328l0 48c0 4.4-3.6 8-8 8l-48 0c-4.4 0-8-3.6-8-8l0-48c0-4.4 3.6-8 8-8l48 0c4.4 0 8 3.6 8 8zm-8-40l-48 0c-22.1 0-40 17.9-40 40l0 48c0 22.1 17.9 40 40 40l48 0c22.1 0 40-17.9 40-40l0-48c0-22.1-17.9-40-40-40z"/>
    </symbol>
    <symbol viewBox="0 0 512 512" id="house">
      <path fill="currentColor" d="M245.6 4.3c6.1-5.7 15.7-5.7 21.8 0l240 224c6.5 6 6.8 16.2 .8 22.6s-16.2 6.8-22.6 .8l-21.1-19.7 0 216c0 35.3-28.7 64-64 64l-288 0c-35.3 0-64-28.7-64-64l0-216-21.1 19.7c-6.5 6-16.6 5.7-22.6-.8s-5.7-16.6 .8-22.6l240-224zm10.9 33.6l-176 164.3 0 245.8c0 17.7 14.3 32 32 32l64 0 0-112c0-35.3 28.7-64 64-64l32 0c35.3 0 64 28.7 64 64l0 112 64 0c17.7 0 32-14.3 32-32l0-245.8-176-164.3zM208.5 480l96 0 0-112c0-17.7-14.3-32-32-32l-32 0c-17.7 0-32 14.3-32 32l0 112z"/>
    </symbol>
    <symbol viewBox="0 0 512 512" id="key">
      <path fill="currentColor" d="M192 176c0-79.5 64.5-144 144-144s144 64.5 144 144-64.5 144-144 144c-11.1 0-22-1.3-32.4-3.6-5.4-1.2-11 .4-14.9 4.3L257.4 352 208 352c-8.8 0-16 7.2-16 16l0 48-48 0c-8.8 0-16 7.2-16 16l0 48-96 0 0-81.4 162.8-162.8c4.2-4.2 5.7-10.5 3.9-16.2-4.4-13.8-6.7-28.4-6.7-43.7zM336 0c-97.2 0-176 78.8-176 176 0 15.1 1.9 29.8 5.5 43.9L4.7 380.7c-3 3-4.7 7.1-4.7 11.3L0 496c0 8.8 7.2 16 16 16l128 0c8.8 0 16-7.2 16-16l0-48 48 0c8.8 0 16-7.2 16-16l0-48 40 0c4.2 0 8.3-1.7 11.3-4.7l30-30c10 1.8 20.2 2.7 30.7 2.7 97.2 0 176-78.8 176-176S433.2 0 336 0zm32 168a24 24 0 1 0 0-48 24 24 0 1 0 0 48z"/>
    </symbol>
    <symbol viewBox="0 0 512 512" id="list">
      <path fill="currentColor" d="M48 112l0-32 32 0 0 32-32 0zM16 72l0 48c0 13.3 10.7 24 24 24l48 0c13.3 0 24-10.7 24-24l0-48c0-13.3-10.7-24-24-24L40 48C26.7 48 16 58.7 16 72zm160 8c-8.8 0-16 7.2-16 16s7.2 16 16 16l320 0c8.8 0 16-7.2 16-16s-7.2-16-16-16L176 80zm0 160c-8.8 0-16 7.2-16 16s7.2 16 16 16l320 0c8.8 0 16-7.2 16-16s-7.2-16-16-16l-320 0zm0 160c-8.8 0-16 7.2-16 16s7.2 16 16 16l320 0c8.8 0 16-7.2 16-16s-7.2-16-16-16l-320 0zM48 240l32 0 0 32-32 0 0-32zm-8-32c-13.3 0-24 10.7-24 24l0 48c0 13.3 10.7 24 24 24l48 0c13.3 0 24-10.7 24-24l0-48c0-13.3-10.7-24-24-24l-48 0zm8 224l0-32 32 0 0 32-32 0zM16 392l0 48c0 13.3 10.7 24 24 24l48 0c13.3 0 24-10.7 24-24l0-48c0-13.3-10.7-24-24-24l-48 0c-13.3 0-24 10.7-24 24z"/>
    </symbol>
    <symbol viewBox="0 0 384 512" id="location-dot">
      <path fill="currentColor" d="M32 188.6C32 102.6 103.1 32 192 32s160 70.6 160 156.6c0 50.3-25.9 109.4-61.4 165.6-34 53.8-74 100.5-98.6 127.4-24.6-26.9-64.6-73.7-98.6-127.4-35.5-56.2-61.4-115.3-61.4-165.6zM192 0C86 0 0 84.4 0 188.6 0 307.9 120.2 450.9 170.4 505.4 182.2 518.2 201.8 518.2 213.6 505.4 263.8 450.9 384 307.9 384 188.6 384 84.4 298 0 192 0zm48 192a48 48 0 1 1 -96 0 48 48 0 1 1 96 0zm-48-80a80 80 0 1 0 0 160 80 80 0 1 0 0-160z"/>
    </symbol>
    <symbol viewBox="0 0 512 512" id="magnifying-glass">
      <path fill="currentColor" d="M384 208a176 176 0 1 0 -352 0 176 176 0 1 0 352 0zM343.3 366C307 397.2 259.7 416 208 416 93.1 416 0 322.9 0 208S93.1 0 208 0 416 93.1 416 208c0 51.7-18.8 99-50 135.3L507.3 484.7c6.2 6.2 6.2 16.4 0 22.6s-16.4 6.2-22.6 0L343.3 366z"/>
    </symbol>
    <symbol viewBox="0 0 448 512" id="minus">
      <path fill="currentColor" d="M0 256c0-8.8 7.2-16 16-16l416 0c8.8 0 16 7.2 16 16s-7.2 16-16 16L16 272c-8.8 0-16-7.2-16-16z"/>
    </symbol>
    <symbol viewBox="0 0 384 512" id="mobile">
      <path fill="currentColor" d="M80 32C62.3 32 48 46.3 48 64l0 384c0 17.7 14.3 32 32 32l224 0c17.7 0 32-14.3 32-32l0-384c0-17.7-14.3-32-32-32L80 32zM16 64C16 28.7 44.7 0 80 0L304 0c35.3 0 64 28.7 64 64l0 384c0 35.3-28.7 64-64 64L80 512c-35.3 0-64-28.7-64-64L16 64zM160 400l64 0c8.8 0 16 7.2 16 16s-7.2 16-16 16l-64 0c-8.8 0-16-7.2-16-16s7.2-16 16-16z"/>
    </symbol>
    <symbol viewBox="0 0 512 512" id="pencil">
      <path fill="currentColor" d="M404 32c-10.7 0-20.9 4.2-28.5 11.8l-58.5 58.5 92.7 92.7 58.5-58.5c7.6-7.6 11.8-17.8 11.8-28.5s-4.2-20.9-11.8-28.5L432.5 43.8C424.9 36.2 414.7 32 404 32zM93 326.3L185.7 419 387 217.7 294.3 125 93 326.3zM72 350.6c-2 3.7-3.6 7.7-4.8 11.8L35.5 476.5 149.6 444.8c4.1-1.1 8.1-2.7 11.8-4.8L72 350.6zM352.9 21.2C366.4 7.6 384.8 0 404 0s37.6 7.6 51.1 21.2l35.7 35.7C504.4 70.4 512 88.8 512 108s-7.6 37.6-21.2 51.1l-294 294c-10.7 10.7-24.1 18.5-38.7 22.6L30.4 511.1c-8.3 2.3-17.3 0-23.4-6.2s-8.5-15.1-6.2-23.4L36.4 353.8c4.1-14.6 11.8-27.9 22.6-38.7l294-294z"/>
    </symbol>
    <symbol viewBox="0 0 448 512" id="plus">
      <path fill="currentColor" d="M240 48c0-8.8-7.2-16-16-16s-16 7.2-16 16l0 192-192 0c-8.8 0-16 7.2-16 16s7.2 16 16 16l192 0 0 192c0 8.8 7.2 16 16 16s16-7.2 16-16l0-192 192 0c8.8 0 16-7.2 16-16s-7.2-16-16-16l-192 0 0-192z"/>
    </symbol>
    <symbol viewBox="0 0 448 512" id="qrcode">
      <path fill="currentColor" d="M144 64c8.8 0 16 7.2 16 16l0 96c0 8.8-7.2 16-16 16l-96 0c-8.8 0-16-7.2-16-16l0-96c0-8.8 7.2-16 16-16l96 0zM48 32C21.5 32 0 53.5 0 80l0 96c0 26.5 21.5 48 48 48l96 0c26.5 0 48-21.5 48-48l0-96c0-26.5-21.5-48-48-48L48 32zM160 336l0 96c0 8.8-7.2 16-16 16l-96 0c-8.8 0-16-7.2-16-16l0-96c0-8.8 7.2-16 16-16l96 0c8.8 0 16 7.2 16 16zM48 288c-26.5 0-48 21.5-48 48l0 96c0 26.5 21.5 48 48 48l96 0c26.5 0 48-21.5 48-48l0-96c0-26.5-21.5-48-48-48l-96 0zM304 64l96 0c8.8 0 16 7.2 16 16l0 96c0 8.8-7.2 16-16 16l-96 0c-8.8 0-16-7.2-16-16l0-96c0-8.8 7.2-16 16-16zM256 80l0 96c0 26.5 21.5 48 48 48l96 0c26.5 0 48-21.5 48-48l0-96c0-26.5-21.5-48-48-48l-96 0c-26.5 0-48 21.5-48 48zm8 240a24 24 0 1 0 48 0 24 24 0 1 0 -48 0zm0 128a24 24 0 1 0 48 0 24 24 0 1 0 -48 0zm152-24a24 24 0 1 0 0 48 24 24 0 1 0 0-48zM392 320a24 24 0 1 0 48 0 24 24 0 1 0 -48 0zm-40 40a24 24 0 1 0 0 48 24 24 0 1 0 0-48zM96 104a24 24 0 1 0 0 48 24 24 0 1 0 0-48zM72 384a24 24 0 1 0 48 0 24 24 0 1 0 -48 0zM352 104a24 24 0 1 0 0 48 24 24 0 1 0 0-48z"/>
    </symbol>
    <symbol viewBox="0 0 512 512" id="right-from-bracket">
      <path fill="currentColor" d="M505 273l0 0c9.4-9.4 9.4-24.6 0-33.9l0 0-144-144c-6.9-6.9-17.2-8.9-26.2-5.2S320 102.3 320 112l0 80-112 0c-26.5 0-48 21.5-48 48l0 32c0 26.5 21.5 48 48 48l112 0 0 80c0 9.7 5.8 18.5 14.8 22.2s19.3 1.7 26.2-5.2L505 273zM352 131.3L476.7 256 352 380.7 352 304c0-8.8-7.2-16-16-16l-128 0c-8.8 0-16-7.2-16-16l0-32c0-8.8 7.2-16 16-16l128 0c8.8 0 16-7.2 16-16l0-76.7zM176 64c8.8 0 16-7.2 16-16s-7.2-16-16-16L96 32C43 32 0 75 0 128L0 384c0 53 43 96 96 96l80 0c8.8 0 16-7.2 16-16s-7.2-16-16-16l-80 0c-35.3 0-64-28.7-64-64l0-256c0-35.3 28.7-64 64-64l80 0z"/>
    </symbol>
    <symbol viewBox="0 0 512 512" id="rotate">
      <path fill="currentColor" d="M480.2 43.3l-100.8 100.7 100.8 0 0-100.7zm32 108.7c0 13.3-10.7 24-24 24l-128.1 0c-9.7 0-18.5-5.8-22.2-14.8s-1.7-19.3 5.2-26.2l53.5-53.5c-88-71-217.2-65.7-298.9 16.1-39.9 39.9-61.6 91.2-65.1 143.5-.6 8.8-8.2 15.5-17 14.9S.1 247.8 .7 238.9c4-59.7 28.8-118.3 74.4-164 94.3-94.3 243.7-99.6 344.3-16.2L471.2 7c6.9-6.9 17.2-8.9 26.2-5.2S512.2 14.3 512.2 24l0 128zM479.6 270.9c.6-8.8 8.2-15.5 17-14.9s15.5 8.2 14.9 17c-4 59.7-28.8 118.3-74.4 164-94.3 94.3-243.7 99.6-344.3 16.2L41 505c-6.9 6.9-17.2 8.9-26.2 5.2S0 497.7 0 488L0 360c0-13.3 10.7-24 24-24l128.1 0c9.7 0 18.5 5.8 22.2 14.8s1.7 19.3-5.2 26.2l-53.5 53.5c88 71 217.2 65.7 298.9-16.1 39.9-39.9 61.6-91.2 65.1-143.4zM32 368L32 468.7 132.8 368 32 368z"/>
    </symbol>
    <symbol viewBox="0 0 512 512" id="share">
      <path fill="currentColor" d="M296 160c13.3 0 24-10.7 24-24l0-88 160 160-160 160 0-88c0-13.3-10.7-24-24-24l-104 0c-70.7 0-128 57.3-128 128 0 8.3 .7 16.1 2 23.2-18.2-23.4-34-57.1-34-103.2 0-79.5 64.5-144 144-144l120 0zm-8 144l0 64c0 12.9 7.8 24.6 19.8 29.6s25.7 2.2 34.9-6.9l160-160c12.5-12.5 12.5-32.8 0-45.3l-160-160c-9.2-9.2-22.9-11.9-34.9-6.9S288 35.1 288 48l0 80-112 0c-97.2 0-176 78.8-176 176 0 113.3 81.5 163.9 100.2 174.1 2.5 1.4 5.3 1.9 8.1 1.9 10.9 0 19.7-8.9 19.7-19.7 0-7.5-4.3-14.4-9.8-19.5-9.4-8.8-22.2-26.4-22.2-56.7 0-53 43-96 96-96l96 0 0 16z"/>
    </symbol>
    <symbol viewBox="0 0 512 512" id="sitemap">
      <path fill="currentColor" d="M288 64l0 64-64 0 0-64 64 0zm-64 96l16 0 0 64-128 0c-35.3 0-64 28.7-64 64l0 64-16 0c-17.7 0-32 14.3-32 32l0 64c0 17.7 14.3 32 32 32l64 0c17.7 0 32-14.3 32-32l0-64c0-17.7-14.3-32-32-32l-16 0 0-64c0-17.7 14.3-32 32-32l128 0 0 96-16 0c-17.7 0-32 14.3-32 32l0 64c0 17.7 14.3 32 32 32l64 0c17.7 0 32-14.3 32-32l0-64c0-17.7-14.3-32-32-32l-16 0 0-96 128 0c17.7 0 32 14.3 32 32l0 64-16 0c-17.7 0-32 14.3-32 32l0 64c0 17.7 14.3 32 32 32l64 0c17.7 0 32-14.3 32-32l0-64c0-17.7-14.3-32-32-32l-16 0 0-64c0-35.3-28.7-64-64-64l-128 0 0-64 16 0c17.7 0 32-14.3 32-32l0-64c0-17.7-14.3-32-32-32l-64 0c-17.7 0-32 14.3-32 32l0 64c0 17.7 14.3 32 32 32zM32 384l64 0 0 64-64 0 0-64zm192 0l64 0 0 64-64 0 0-64zm192 0l64 0 0 64-64 0 0-64z"/>
    </symbol>
    <symbol viewBox="0 0 448 512" id="square">
      <path fill="currentColor" d="M384 64c17.7 0 32 14.3 32 32l0 320c0 17.7-14.3 32-32 32L64 448c-17.7 0-32-14.3-32-32L32 96c0-17.7 14.3-32 32-32l320 0zM64 32C28.7 32 0 60.7 0 96L0 416c0 35.3 28.7 64 64 64l320 0c35.3 0 64-28.7 64-64l0-320c0-35.3-28.7-64-64-64L64 32z"/>
    </symbol>
    <symbol viewBox="0 0 448 512" id="square-check">
      <path fill="currentColor" d="M64 64C46.3 64 32 78.3 32 96l0 320c0 17.7 14.3 32 32 32l320 0c17.7 0 32-14.3 32-32l0-320c0-17.7-14.3-32-32-32L64 64zM0 96C0 60.7 28.7 32 64 32l320 0c35.3 0 64 28.7 64 64l0 320c0 35.3-28.7 64-64 64L64 480c-35.3 0-64-28.7-64-64L0 96zM301.6 200.5l-80 128c-2.8 4.5-7.6 7.3-12.9 7.5s-10.3-2.2-13.5-6.4l-48-64c-5.3-7.1-3.9-17.1 3.2-22.4s17.1-3.9 22.4 3.2l34 45.3 67.6-108.2c4.7-7.5 14.6-9.8 22-5.1s9.8 14.6 5.1 22z"/>
    </symbol>
    <symbol viewBox="0 0 448 512" id="square-minus">
      <path fill="currentColor" d="M64 64C46.3 64 32 78.3 32 96l0 320c0 17.7 14.3 32 32 32l320 0c17.7 0 32-14.3 32-32l0-320c0-17.7-14.3-32-32-32L64 64zM0 96C0 60.7 28.7 32 64 32l320 0c35.3 0 64 28.7 64 64l0 320c0 35.3-28.7 64-64 64L64 480c-35.3 0-64-28.7-64-64L0 96zM128 240l192 0c8.8 0 16 7.2 16 16s-7.2 16-16 16l-192 0c-8.8 0-16-7.2-16-16s7.2-16 16-16z"/>
    </symbol>
    <symbol viewBox="0 0 576 512" id="star">
      <path fill="currentColor" d="M383 125.3L309.5-18.9c-4.1-8-12.4-13.1-21.4-13.1s-17.3 5.1-21.4 13.1L193.1 125.3 33.2 150.7c-8.9 1.4-16.3 7.7-19.1 16.3s-.5 18 5.8 24.4l114.4 114.5-25.2 159.9c-1.4 8.9 2.3 17.9 9.6 23.2s16.9 6.1 25 2L288.1 417.6 432.4 491c8 4.1 17.7 3.3 25-2s11-14.2 9.6-23.2L441.7 305.9 556.1 191.4c6.4-6.4 8.6-15.8 5.8-24.4s-10.1-14.9-19.1-16.3L383 125.3zm-5 31.6l144.4 23-103.3 103.5c-7.2 7.2-10.6 17.5-9 27.6L432.9 455.3 302.6 389c-9.1-4.6-19.9-4.6-29 0L143.2 455.3 166 310.9c1.6-10.1-1.7-20.4-9-27.6l-103.3-103.5 144.4-23c10.1-1.6 18.8-7.9 23.5-17.1L288.1 9.6 354.5 139.8c4.6 9.1 13.4 15.5 23.5 17.1z"/>
    </symbol>
    <symbol viewBox="0 0 448 512" id="trash">
      <path fill="currentColor" d="M160.5 27.4c2-6.8 8.3-11.4 15.3-11.4l96.4 0c7.1 0 13.3 4.6 15.3 11.4l11 36.6-149 0 11-36.6zM116.1 64L16 64C7.2 64 0 71.2 0 80S7.2 96 16 96l416 0c8.8 0 16-7.2 16-16s-7.2-16-16-16l-100.1 0-13.7-45.8C312.1-2.1 293.4-16 272.2-16l-96.4 0c-21.2 0-39.9 13.9-46 34.2L116.1 64zM28.7 144L51.6 452.7c2.5 33.4 30.3 59.3 63.8 59.3l217.1 0c33.5 0 61.3-25.9 63.8-59.3l22.9-308.7-32.1 0-22.7 306.4c-1.2 16.7-15.2 29.6-31.9 29.6l-217.1 0c-16.8 0-30.7-12.9-31.9-29.6L60.8 144 28.7 144z"/>
    </symbol>
    <symbol viewBox="0 0 448 512" id="trash-can">
      <path fill="currentColor" d="M160.5 27.4c2-6.8 8.3-11.4 15.3-11.4l96.4 0c7.1 0 13.3 4.6 15.3 11.4l11 36.6-149 0 11-36.6zM116.1 64L16 64C7.2 64 0 71.2 0 80S7.2 96 16 96l416 0c8.8 0 16-7.2 16-16s-7.2-16-16-16l-100.1 0-13.7-45.8C312.1-2.1 293.4-16 272.2-16l-96.4 0c-21.2 0-39.9 13.9-46 34.2L116.1 64zM32 144l0 304c0 35.3 28.7 64 64 64l256 0c35.3 0 64-28.7 64-64l0-304-32 0 0 304c0 17.7-14.3 32-32 32L96 480c-17.7 0-32-14.3-32-32l0-304-32 0zm112 64c0-8.8-7.2-16-16-16s-16 7.2-16 16l0 192c0 8.8 7.2 16 16 16s16-7.2 16-16l0-192zm96 0c0-8.8-7.2-16-16-16s-16 7.2-16 16l0 192c0 8.8 7.2 16 16 16s16-7.2 16-16l0-192zm96 0c0-8.8-7.2-16-16-16s-16 7.2-16 16l0 192c0 8.8 7.2 16 16 16s16-7.2 16-16l0-192z"/>
    </symbol>
    <symbol viewBox="0 0 640 512" id="trash-list">
      <path fill="currentColor" d="M175.8 16c-7.1 0-13.3 4.6-15.3 11.4l-11 36.6 181 0-11-36.6c-2-6.8-8.3-11.4-15.3-11.4L175.8 16zm-46 2.2c6.1-20.3 24.8-34.2 46-34.2l128.4 0c21.2 0 39.9 13.9 46 34.2L363.9 64 432 64c8.8 0 16 7.2 16 16s-7.2 16-16 16L48 96c-8.8 0-16-7.2-16-16s7.2-16 16-16l68.1 0 13.7-45.8zM83.6 452.7L60.7 144 92.8 144 115.5 450.4c1.2 16.7 15.2 29.6 31.9 29.6l185.1 0c16.8 0 30.7-12.9 31.9-29.6l22.7-306.4 32.1 0-22.9 308.7c-2.5 33.4-30.3 59.3-63.8 59.3l-185.1 0c-33.5 0-61.3-25.9-63.8-59.3zM496 128l128 0c8.8 0 16 7.2 16 16s-7.2 16-16 16l-128 0c-8.8 0-16-7.2-16-16s7.2-16 16-16zm0 128l96 0c8.8 0 16 7.2 16 16s-7.2 16-16 16l-96 0c-8.8 0-16-7.2-16-16s7.2-16 16-16zM480 400c0-8.8 7.2-16 16-16l32 0c8.8 0 16 7.2 16 16s-7.2 16-16 16l-32 0c-8.8 0-16-7.2-16-16z"/>
    </symbol>
    <symbol viewBox="0 0 448 512" id="upload">
      <path fill="currentColor" d="M240 54.6L240 336c0 8.8-7.2 16-16 16s-16-7.2-16-16l0-281.4-84.7 84.7c-6.2 6.2-16.4 6.2-22.6 0s-6.2-16.4 0-22.6l112-112c6.2-6.2 16.4-6.2 22.6 0l112 112c6.2 6.2 6.2 16.4 0 22.6s-16.4 6.2-22.6 0L240 54.6zM160 320l-96 0c-17.7 0-32 14.3-32 32l0 64c0 17.7 14.3 32 32 32l320 0c17.7 0 32-14.3 32-32l0-64c0-17.7-14.3-32-32-32l-96 0 0-32 96 0c35.3 0 64 28.7 64 64l0 64c0 35.3-28.7 64-64 64L64 480c-35.3 0-64-28.7-64-64l0-64c0-35.3 28.7-64 64-64l96 0 0 32zm160 64a24 24 0 1 1 48 0 24 24 0 1 1 -48 0z"/>
    </symbol>
    <symbol viewBox="0 0 448 512" id="user">
      <path fill="currentColor" d="M128 128a96 96 0 1 1 192 0 96 96 0 1 1 -192 0zm224 0a128 128 0 1 0 -256 0 128 128 0 1 0 256 0zM32 480c0-79.5 64.5-144 144-144l96 0c79.5 0 144 64.5 144 144l0 16c0 8.8 7.2 16 16 16s16-7.2 16-16l0-16c0-97.2-78.8-176-176-176l-96 0C78.8 304 0 382.8 0 480l0 16c0 8.8 7.2 16 16 16s16-7.2 16-16l0-16z"/>
    </symbol>
    <symbol viewBox="0 0 576 512" id="user-lock">
      <path fill="currentColor" d="M128 128a96 96 0 1 1 192 0 96 96 0 1 1 -192 0zm224 0a128 128 0 1 0 -256 0 128 128 0 1 0 256 0zM32 480c0-79.5 64.5-144 144-144l96 0c17.4 0 34 3.1 49.4 8.7 4.2-6 9.1-11.5 14.6-16.4l0-12.4c-19.8-7.7-41.4-12-64-12l-96 0C78.8 304 0 382.8 0 480l0 16c0 8.8 7.2 16 16 16s16-7.2 16-16l0-16zM384 352.1l0 2.6c-18.6 6.6-32 24.4-32 45.3l0 96c0 26.5 21.5 48 48 48l128 0c26.5 0 48-21.5 48-48l0-96c0-20.9-13.4-38.7-32-45.3l0-50.6c0-44.2-35.8-80-80-80s-80 35.8-80 80l0 48zm0 47.9c0-8.2 6.2-15 14.3-15.9l131.5 0c8 .9 14.3 7.7 14.3 15.9l0 96c0 8.8-7.2 16-16 16l-128 0c-8.8 0-16-7.2-16-16l0-96zm128-95.9l0 47.9-96 0 0-47.9c0-26.5 21.5-48 48-48s48 21.5 48 48z"/>
    </symbol>
    <symbol viewBox="0 0 448 512" id="user-secret">
      <path fill="currentColor" d="M141.3 2.9c10.3-10.8 23.9-18.9 40.7-18.9 12.9 0 24.4 5 32.7 9 3.9 1.8 7.1 2.7 9.3 2.7s5.4-.8 9.3-2.7c8.3-4 19.8-9 32.7-9 16.8 0 30.4 8.2 40.7 18.9 10.2 10.6 18 24.6 24 38.8 9.8 23 15.9 49.2 19.2 70.3l34 0c8.8 0 16 7.2 16 16s-7.2 16-16 16l-32 0 0 32c0 17-3.3 33.2-9.3 48l41.3 0c5.4 0 10.3 2.7 13.3 7.1s3.5 10.1 1.5 15l-34.4 82.7c23.6 14.6 43 36.6 57.1 61.4 16.7 29.5 26.6 64.2 26.6 97.7l0 8c0 8.8-7.2 16-16 16s-16-7.2-16-16l0-8c0-27.5-8.2-56.8-22.4-82-14.3-25.2-34.1-45.2-56.3-55.5-7.8-3.6-11.3-12.7-8-20.7l30.8-73.8-36.1 0c-23.5 29.3-59.5 48-99.9 48s-76.5-18.7-99.9-48l-36.1 0 30.8 73.8c3.3 7.9-.2 17-8 20.7-22.3 10.3-42 30.3-56.3 55.5-14.3 25.1-22.4 54.4-22.4 82l0 8c0 8.8-7.2 16-16 16S0 504.8 0 496l0-8c0-33.5 9.8-68.2 26.6-97.7 14.1-24.9 33.5-46.9 57.1-61.4L49.2 246.2c-2.1-4.9-1.5-10.6 1.5-15s8-7.1 13.3-7.1l41.3 0c-6-14.8-9.3-31-9.3-48l0-32-32 0c-8.8 0-16-7.2-16-16s7.2-16 16-16l34 0c3.3-21 9.5-47.3 19.2-70.3 6-14.3 13.9-28.2 24-38.8zM130.4 112l187.1 0c-3.1-18.1-8.5-39.5-16.2-57.7-5.3-12.4-11.3-22.5-17.7-29.2-6.3-6.6-12-9.1-17.6-9.1-5.2 0-11 2-19 5.9-6 2.9-14.2 5.8-23 5.8s-17-2.9-23-5.8c-8-3.8-13.8-5.9-19-5.9-5.6 0-11.4 2.5-17.6 9.1-6.4 6.7-12.4 16.8-17.7 29.2-7.8 18.3-13.1 39.6-16.2 57.7zm1.8 92.4C144.4 243.6 180.9 272 224 272s79.6-28.4 91.7-67.6c-6.1 2.3-12.8 3.6-19.7 3.6l-27.2 0c-18 0-34.5-8.6-44.8-22.4-10.4 13.9-26.9 22.4-44.8 22.4L152 208c-6.9 0-13.6-1.3-19.7-3.6zM320 152l0-8-79.1 0 5.2 15.6c3.3 9.8 12.4 16.4 22.8 16.4l27.2 0c13.3 0 24-10.7 24-24zm-112.9-8l-79.1 0 0 8c0 13.3 10.7 24 24 24l27.2 0c10.3 0 19.5-6.6 22.8-16.4l5.2-15.6zM256 368l-9.8 0 41 122.9c1.6 4.9 .8 10.2-2.2 14.4s-7.8 6.6-13 6.6l-96 0c-5.1 0-10-2.5-13-6.6s-3.8-9.5-2.2-14.4l41-122.9-9.8 0c-8.8 0-16-7.2-16-16s7.2-16 16-16l64 0c8.8 0 16 7.2 16 16s-7.2 16-16 16zm-32 34.6l-25.8 77.4 51.6 0-25.8-77.4z"/>
    </symbol>
    <symbol viewBox="0 0 640 512" id="user-tag">
      <path fill="currentColor" d="M352.1 128a96 96 0 1 0 -192 0 96 96 0 1 0 192 0zm-224 0a128 128 0 1 1 256 0 128 128 0 1 1 -256 0zm-64 352l0 16c0 8.8-7.2 16-16 16s-16-7.2-16-16l0-16c0-97.2 78.8-176 176-176l96 0 1.6 0c-1.1 5.2-1.6 10.6-1.6 16.1l0 15.9-96 0c-79.5 0-144 64.5-144 144zm320-159.9l0 92.1c0 4.2 1.7 8.3 4.7 11.3l96 96c6.2 6.2 16.4 6.2 22.6 0l76.1-76.1c6.2-6.2 6.2-16.4 0-22.6l-96-96c-3-3-7.1-4.7-11.3-4.7l-92.1 0zM366.2 446.2c-9-9-14.1-21.2-14.1-33.9l0-92.1c0-17.7 14.3-32 32-32l92.1 0c12.7 0 24.9 5.1 33.9 14.1l96 96c18.7 18.7 18.7 49.1 0 67.9l-76.1 76.1c-18.7 18.7-49.1 18.7-67.9 0l-96-96zM424.1 384a24 24 0 1 1 48 0 24 24 0 1 1 -48 0z"/>
    </symbol>
    <symbol viewBox="0 0 640 512" id="users">
      <path fill="currentColor" d="M320 208a80 80 0 1 0 0-160 80 80 0 1 0 0 160zm0-192a112 112 0 1 1 0 224 112 112 0 1 1 0-224zM296 320c-66.3 0-120 53.7-120 120l0 24c0 8.8-7.2 16-16 16s-16-7.2-16-16l0-24c0-83.9 68.1-152 152-152l48 0c83.9 0 152 68.1 152 152l0 24c0 8.8-7.2 16-16 16s-16-7.2-16-16l0-24c0-66.3-53.7-120-120-120l-48 0zm135.4-77.2c7.8-7.6 14.9-16 21-25 8.3 4 17.7 6.2 27.6 6.2 35.3 0 64-28.7 64-64s-28.7-64-64-64c-1.1 0-2.1 0-3.2 .1-2.2-10.8-5.5-21.3-9.8-31.2 4.2-.6 8.6-.9 12.9-.9 53 0 96 43 96 96s-43 96-96 96c-17.7 0-34.3-4.8-48.6-13.2zM160 64c4.4 0 8.7 .3 12.9 .9-4.3 9.9-7.6 20.4-9.8 31.2-1.1-.1-2.1-.1-3.2-.1-35.3 0-64 28.7-64 64s28.7 64 64 64c9.9 0 19.2-2.2 27.5-6.2 6.1 9.1 13.2 17.4 21 25-14.2 8.4-30.8 13.2-48.6 13.2-53 0-96-43-96-96s43-96 96-96zM149.4 304c-9.6 10.3-18.1 21.6-25.3 33.8-52.3 9.4-92.1 55.2-92.1 110.2l0 16c0 8.8-7.2 16-16 16S0 472.8 0 464l0-16c0-79.5 64.5-144 144-144l5.4 0zm366.6 33.8c-7.2-12.1-15.7-23.5-25.3-33.8l5.3 0c79.5 0 144 64.5 144 144l0 16c0 8.8-7.2 16-16 16s-16-7.2-16-16l0-16c0-55-39.7-100.8-92.1-110.2z"/>
    </symbol>
    <symbol viewBox="0 0 384 512" id="xmark">
      <path fill="currentColor" d="M379.3 91.3c6.2-6.2 6.2-16.4 0-22.6s-16.4-6.2-22.6 0L192 233.4 27.3 68.7c-6.2-6.2-16.4-6.2-22.6 0s-6.2 16.4 0 22.6L169.4 256 4.7 420.7c-6.2 6.2-6.2 16.4 0 22.6s16.4 6.2 22.6 0L192 278.6 356.7 443.3c6.2 6.2 16.4 6.2 22.6 0s6.2-16.4 0-22.6L214.6 256 379.3 91.3z"/>
    </symbol>
  </defs>
</svg>
